<?xml version="1.0" encoding="UTF-8"?>
<svg width="2561px" height="619px" viewBox="0 0 2561 619" version="1.1" xmlns="http://www.w3.org/2000/svg" xmlns:xlink="http://www.w3.org/1999/xlink">
    <title>banner-waves-short</title>
    <g id="Page-1" stroke="none" stroke-width="1" fill="none" fill-rule="evenodd">
        <g id="banner-waves-short" transform="translate(-0.0027, 0)">
            <path d="M2560.50269,618.5 L2560.50269,172.61 C2558.04269,171.07 2551.95269,169.89 2541.13269,169.89 L2538.18269,169.89 C2527.25269,169.89 2515.03269,169.83 2503.10269,169.21 C2412.99269,167.5 2310.21269,165.44 2199.20269,204.83 C2072.43269,249.69 1875.09269,307.91 1799.03269,322.98 C1732.59269,336.46 1728.04269,336.05 1689.28269,319.03 L1684.25269,316.82 C1679.80269,314.77 1675.00269,312.71 1669.86269,310.66 C1667.35269,309.72 1664.26269,308.2 1660.33269,306.37 L1659.24269,305.86 L1655.13269,304.15 C1556.12269,260.32 1126.82269,69.57 945.922685,114.77 C885.642685,129.94 819.012685,148.08 751.732685,166.83 L731.862685,172.38 L718.612685,176.09 L703.902685,180.22 C682.342685,186.28 660.852685,192.34 639.622685,198.34 L582.192685,214.56 C496.522685,238.74 418.882685,260.35 363.812685,272.99 C232.252685,303.13 115.762685,298.33 24.282685,288.4 C14.922685,287.72 8.45268505,287.94 4.67268505,288.48 L4.18268505,288.55 L3.74268505,288.62 C2.75268505,288.79 2.00268505,288.99 1.48268505,289.19 L1.48268505,0 L0.502685046,0 L0.502685046,618.5 L2560.50269,618.5 Z" id="Path" fill="#1C1C1C"></path>
            <path d="M2539.31269,71.03 C2440.65269,70 2324.52269,61.08 2197.77269,106.03 C2071.02269,150.98 1873.70269,209.31 1797.65269,224.41 C1721.60269,239.51 1726.74269,237.11 1668.85269,211.71 C1610.96269,186.31 1137.19269,-32.93 945.012685,15.45 C752.832685,63.49 494.542685,143.78 363.332685,173.97 C231.782685,204.16 115.312685,199.36 23.852685,189.41 C-9.03731495,186.67 -5.60731495,193.87 20.082685,197.99 C45.772685,202.11 210.552685,222.35 365.392685,181.86 C520.232685,141.37 829.222685,47.01 931.312685,34.66 C1033.39269,21.96 1051.21269,23.34 1114.58269,36.03 C1177.95269,48.73 1402.33269,116.66 1668.85269,228.52 C1708.25269,244.65 1714.07269,263.52 1824.03269,234.01 C1933.99269,204.16 2104.59269,147.89 2223.12269,114.26 C2341.65269,80.63 2356.04269,76.52 2538.97269,82.69 C2557.81269,83.72 2574.94269,71.02 2538.97269,71.02 L2539.31269,71.02 L2539.31269,71.03 Z" id="Path" fill="#FBC028" fill-rule="nonzero"></path>
            <path d="M2539.31269,170.03 C2440.65269,169 2324.52269,160.08 2197.77269,205.03 C2071.02269,249.98 1873.70269,308.31 1797.65269,323.41 C1721.60269,338.85 1726.74269,336.11 1668.85269,310.71 C1610.96269,285.32 1137.19269,66.07 945.012685,114.45 C752.832685,162.49 494.542685,242.78 363.332685,272.97 C231.782685,303.16 115.312685,298.36 23.852685,288.41 C-9.03731495,285.67 -5.60731495,292.87 20.082685,296.99 C45.772685,301.11 210.552685,321.35 365.392685,280.86 C520.232685,240.37 829.222685,146.01 931.312685,133.66 C1033.39269,120.96 1051.21269,122.34 1114.58269,135.03 C1177.95269,147.72 1402.33269,215.66 1668.85269,327.52 C1708.25269,343.65 1714.07269,362.52 1824.03269,333.01 C1933.99269,303.16 2104.59269,246.89 2223.12269,213.26 C2341.65269,179.63 2356.04269,175.52 2538.97269,181.69 C2557.81269,182.72 2574.94269,170.02 2538.97269,170.02 L2539.31269,170.02 L2539.31269,170.03 Z" id="Path-2" fill="#FFFFFF" fill-rule="nonzero"></path>
            <path d="M2539.24269,440.03 C2440.58269,439 2324.46269,430.08 2197.71269,475.03 C2070.96269,519.98 1873.65269,578.31 1797.60269,593.41 C1721.55269,608.85 1726.69269,606.11 1668.80269,580.71 C1610.91269,555.31 1137.15269,336.07 944.982685,384.45 C752.812685,432.49 494.522685,512.78 363.322685,542.97 C231.782685,573.16 115.312685,568.36 23.852685,558.41 C-9.03731495,555.67 -5.60731495,562.87 20.082685,566.99 C45.772685,571.11 210.542685,591.35 365.382685,550.86 C520.222685,510.37 829.202685,416.01 931.282685,403.66 C1033.36269,390.96 1051.17269,392.34 1114.55269,405.03 C1177.92269,417.73 1402.30269,485.66 1668.81269,597.52 C1708.20269,613.65 1714.03269,632.52 1823.99269,603.01 C1933.95269,573.16 2104.54269,516.89 2223.07269,483.26 C2341.59269,449.63 2355.98269,445.52 2538.91269,451.69 C2557.75269,452.72 2574.88269,440.02 2539.25269,440.02 L2539.25269,440.02 L2539.24269,440.03 Z" id="Path-3" fill="#FFFFFF" fill-rule="nonzero"></path>
        </g>
    </g>
</svg>