<svg width="196" height="316" viewBox="0 0 196 316" fill="none" xmlns="http://www.w3.org/2000/svg">
<path d="M120.312 45.0723L195.348 85.7578V76.6572L124.125 38.0391L120.312 45.0723Z" fill="#605327"/>
<path d="M65.9717 145.288L195.348 215.438V206.337L69.7852 138.255L65.9717 145.288Z" fill="#605327"/>
<path d="M92.5947 259.827L195.348 315.541V306.44L96.4082 252.794L92.5947 259.827Z" fill="#605327"/>
<path d="M0.25293 130.128L195.348 235.912V226.812L4.06641 123.096L0.25293 130.128Z" fill="#605327"/>
<path d="M161.232 133.238L195.348 151.735V147.186L163.139 129.722L161.232 133.238Z" fill="#605327"/>
<path d="M143.12 166.644L195.348 194.962V158.561L158.373 138.513L143.12 166.644Z" fill="#605327"/>
<path d="M50.7178 173.419L195.348 251.84V247.289L52.625 169.902L50.7178 173.419Z" fill="#605327"/>
<path d="M32.6064 206.824L195.348 295.065V258.664L47.8594 178.693L32.6064 206.824Z" fill="#605327"/>
<path d="M12.3965 7.0332L195.348 106.232V97.1318L16.21 0L12.3965 7.0332Z" fill="#605327"/>
<path d="M0.000976562 29.8887L195.348 135.81V117.608L7.62793 15.8232L0.000976562 29.8887Z" fill="#605327"/>
</svg>
