<svg width="995" height="398" viewBox="0 0 995 398" fill="none" xmlns="http://www.w3.org/2000/svg">
<g clip-path="url(#clip0_12096_396)">
<path d="M995 332.586C927.509 345.643 773.172 410.931 883.838 281.838C994.503 152.745 1054.55 -63.5968 863.987 19.4977C673.424 102.592 797.133 136.773 809.895 195.183C822.798 254.239 803.94 311.812 735.456 344.753C658.812 381.619 424.798 208.835 396.511 142.656C368.225 76.4771 526.035 95.1726 588.564 131.675C651.092 168.177 552.833 240.293 434.227 281.839C357.717 308.639 362.035 444.745 325.05 379.473C264.011 271.749 139.448 392.235 208.925 267.593C272.943 152.746 224.309 101.999 123.569 118.024C42.976 130.845 7.60928 139.787 -2.55925e-05 142.656" stroke="black" stroke-width="2"/>
</g>
</svg>
