<?xml version="1.0" encoding="UTF-8"?>
<svg width="2560px" height="1151px" viewBox="0 0 2560 1151" version="1.1" xmlns="http://www.w3.org/2000/svg" xmlns:xlink="http://www.w3.org/1999/xlink">
    <title>Path</title>
    <g id="Page-1" stroke="none" stroke-width="1" fill="none" fill-rule="evenodd">
        <g id="Studio-Display" transform="translate(0, -5001)" stroke="#FFFFFF" stroke-width="8">
            <g id="squiggly-line-1" transform="translate(-42, 5006)">
                <path d="M1577.59764,-1392 C1539.97447,-1125.76559 1351.8597,-516.950125 1723.81729,-953.496259 C2095.77523,-1390.04083 2719.12372,-1626.91115 2479.70252,-875.19202 C2240.28132,-123.471322 2141.79541,-611.467257 1973.49769,-661.812968 C1803.33934,-712.710723 1637.45465,-638.321696 1542.54073,-368.17207 C1436.31792,-65.8315711 1934.1625,857.289277 2124.84439,968.872818 C2315.52627,1080.45636 2261.65821,457.937656 2156.4839,211.279302 C2051.30959,-35.3790524 1843.52276,352.226933 1723.81558,820.094763 C1646.5937,1121.90671 1254.431,1104.87162 1442.50046,1250.76808 C1752.88816,1491.55362 1405.72947,1982.91663 1764.86093,1708.84788 C2095.77352,1456.31671 2241.98976,1648.16209 2195.81567,2045.55611 C2158.8764,2363.47132 2133.11126,2502.98599 2124.84439,2533" id="Path" transform="translate(1962.5, 570.5) rotate(-90) translate(-1962.5, -570.5)"></path>
            </g>
        </g>
    </g>
</svg>