<svg width="43" height="42" viewBox="0 0 43 42" fill="none" xmlns="http://www.w3.org/2000/svg">
<g clip-path="url(#clip0_9837_606)">
<path d="M0 0V42H43V0H0ZM27.4442 2.63386H40.2999V25.5687H27.4442V2.63386ZM13.7624 2.49204C20.0895 2.49204 25.2277 7.65847 25.2277 14.0203C25.2277 20.3821 20.0895 25.5485 13.7624 25.5485C7.43533 25.5485 2.29709 20.3821 2.29709 14.0203C2.27694 7.65847 7.41518 2.49204 13.7624 2.49204ZM40.3201 39.3054H2.15604V28.466H5.82334V28.4457H37.9021V28.466H40.3201V39.3054Z" fill="#1C1C1C"/>
<path d="M13.8647 18.3761C16.2827 18.3761 18.2373 16.4108 18.2373 13.9795C18.2373 11.5483 16.2827 9.58301 13.8647 9.58301C11.4467 9.58301 9.49219 11.5685 9.49219 13.9795C9.49219 16.3905 11.4669 18.3761 13.8647 18.3761ZM13.8647 10.7986C15.6178 10.7986 17.0283 12.2169 17.0283 13.9795C17.0283 15.7422 15.6178 17.1604 13.8647 17.1604C12.1117 17.1604 10.7012 15.7422 10.7012 13.9795C10.7012 12.2169 12.1318 10.7986 13.8647 10.7986Z" fill="#1C1C1C"/>
<path d="M37 11H31V17H37V11Z" fill="#1C1C1C"/>
</g>
<defs>
<clipPath id="clip0_9837_606">
<rect width="43" height="42" fill="white"/>
</clipPath>
</defs>
</svg>
