<?xml version="1.0" encoding="UTF-8"?>
<svg xmlns="http://www.w3.org/2000/svg" version="1.1" viewBox="0 0 75 18.8">
  <path class="cls-1" d="M18.8,9.4c0,5.2-4.2,9.4-9.4,9.4S0,14.6,0,9.4,4.2,0,9.4,0s9.4,4.2,9.4,9.4ZM65.6,0c-5.2,0-9.4,4.2-9.4,9.4s4.2,9.4,9.4,9.4,9.4-4.2,9.4-9.4S70.8,0,65.6,0ZM37.5,0c-5.2,0-9.4,4.2-9.4,9.4s4.2,9.4,9.4,9.4,9.4-4.2,9.4-9.4S42.7,0,37.5,0Z"/>
</svg>

<svg class="border border-red-500" ... >


<svg
xmlns="http://www.w3.org/2000/svg"
viewBox="0 0 75 30"
class="w-8 h-auto fill-black overflow-visible"
>
<circle
        cx="9.4"
        cy="15"
        r="9.4"
        class="origin-center transition-transform group-hover:animate-bounce-once"
/>
<circle
        cx="37.5"
        cy="15"
        r="9.4"
        class="origin-center transition-transform group-hover:animate-bounce-once-delay-150"
/>
<circle
        cx="65.6"
        cy="15"
        r="9.4"
        class="origin-center transition-transform group-hover:animate-bounce-once-delay-300"
/>
</svg>
